<?xml version="1.0" standalone="no"?><!DOCTYPE svg PUBLIC "-//W3C//DTD SVG 1.1//EN" "http://www.w3.org/Graphics/SVG/1.1/DTD/svg11.dtd"><svg t="1573189980984" class="icon" viewBox="0 0 1024 1024" version="1.1" xmlns="http://www.w3.org/2000/svg" p-id="6352" xmlns:xlink="http://www.w3.org/1999/xlink" width="200" height="200"><defs><style type="text/css"></style></defs><path d="M896 864h-256a32 32 0 0 1 0-64h256a32 32 0 0 1 0 64z" fill="#4D4D4D" p-id="6353"></path><path d="M768 992a32 32 0 0 1-32-32v-256a32 32 0 0 1 64 0v256a32 32 0 0 1-32 32zM896 320H128a32 32 0 0 1-32-32v-192A32 32 0 0 1 128 64h768a32 32 0 0 1 32 32v192a32 32 0 0 1-32 32zM160 256h704V128h-704zM896 640H128a32 32 0 0 1-32-32v-192A32 32 0 0 1 128 384h768a32 32 0 0 1 32 32v192a32 32 0 0 1-32 32zM160 576h704V448h-704zM544 960H128a32 32 0 0 1-32-32v-192A32 32 0 0 1 128 704h416a32 32 0 0 1 32 32v192a32 32 0 0 1-32 32z m-384-64H512v-128H160z" fill="#4D4D4D" p-id="6354"></path></svg>