<?xml version="1.0" standalone="no"?><!DOCTYPE svg PUBLIC "-//W3C//DTD SVG 1.1//EN" "http://www.w3.org/Graphics/SVG/1.1/DTD/svg11.dtd"><svg t="1573189184737" class="icon" viewBox="0 0 1024 1024" version="1.1" xmlns="http://www.w3.org/2000/svg" p-id="1533" xmlns:xlink="http://www.w3.org/1999/xlink" width="200" height="200"><defs><style type="text/css"></style></defs><path d="M500.1 232c110 0 199.6 81.9 211.4 186.9 0.8 0 1.6-0.2 2.4-0.2 105 0 190.1 83.6 190.1 186.7 0 103-85.1 186.6-190.1 186.6H286.3C194.5 792 120 718.9 120 628.7c0-90.2 74.5-163.3 166.3-163.3h2.4c-0.9-7.8-2.4-15.3-2.4-23.3C286.3 326 382 232 500.1 232m0-56c-140 0-255.5 105.7-268.6 240.4C134.7 441.1 64 526.9 64 628.7 64 749.6 163.7 848 286.3 848h427.6C849.6 848 960 739.1 960 605.3c0-119-87.4-218.3-202.2-238.8C724.7 255.2 621 176 500.1 176z" p-id="1534"></path></svg>